{
    "accessors" : [
        {
            "bufferView" : 0,
            "componentType" : 5123,
            "count" : 564,
            "max" : [
                251
            ],
            "min" : [
                0
            ],
            "type" : "SCALAR"
        },
        {
            "bufferView" : 1,
            "componentType" : 5126,
            "count" : 252,
            "max" : [
                3.372741222381592,
                4.974609851837158,
                0.7033953070640564
            ],
            "min" : [
                -3.661102771759033,
                -6.279550075531006,
                -0.7033918499946594
            ],
            "type" : "VEC3"
        },
        {
            "bufferView" : 2,
            "componentType" : 5126,
            "count" : 252,
            "max" : [
                0.9807733297348022,
                0.999755859375,
                1.0
            ],
            "min" : [
                -0.9807733297348022,
                -0.9976806044578552,
                -1.0
            ],
            "type" : "VEC3"
        }
    ],
    "asset" : {
        "generator" : "Khronos Blender glTF 2.0 exporter",
        "version" : "2.0"
    },
    "bufferViews" : [
        {
            "buffer" : 0,
            "byteLength" : 1128,
            "byteOffset" : 0,
            "target" : 34963
        },
        {
            "buffer" : 0,
            "byteLength" : 3024,
            "byteOffset" : 1128,
            "target" : 34962
        },
        {
            "buffer" : 0,
            "byteLength" : 3024,
            "byteOffset" : 4152,
            "target" : 34962
        }
    ],
    "buffers" : [
        {
            "byteLength" : 7176,
            "uri" : "2.bin"
        }
    ],
    "materials" : [
        {
            "emissiveFactor" : [
                0.15592648088932037,
                0.15592648088932037,
                0.15592648088932037
            ],
            "name" : "default.001",
            "pbrMetallicRoughness" : {
                "baseColorFactor" : [
                    0.7454043626785278,
                    1.0,
                    1.0,
                    1.0
                ],
                "metallicFactor" : 0.0,
                "roughnessFactor" : 0.5090909004211426
            }
        }
    ],
    "meshes" : [
        {
            "name" : "wall_1_1_1_31_37.000",
            "primitives" : [
                {
                    "attributes" : {
                        "NORMAL" : 2,
                        "POSITION" : 1
                    },
                    "indices" : 0,
                    "material" : 0
                }
            ]
        }
    ],
    "nodes" : [
        {
            "name" : "Camera",
            "rotation" : [
                0.483536034822464,
                0.33687159419059753,
                -0.20870360732078552,
                0.7804827094078064
            ],
            "translation" : [
                7.481131553649902,
                5.34366512298584,
                6.5076398849487305
            ]
        },
        {
            "name" : "Lamp",
            "rotation" : [
                0.16907575726509094,
                0.7558802962303162,
                -0.27217137813568115,
                0.570947527885437
            ],
            "scale" : [
                1.0,
                1.0,
                0.9999999403953552
            ],
            "translation" : [
                4.076245307922363,
                5.903861999511719,
                -1.0054539442062378
            ]
        },
        {
            "mesh" : 0,
            "name" : "wall_1_1_1_31_37.001",
            "rotation" : [
                1.0,
                0.0,
                -0.0,
                -4.371138828673793e-08
            ],
            "scale" : [
                0.5,
                0.5,
                0.5
            ]
        }
    ],
    "scene" : 0,
    "scenes" : [
        {
            "name" : "Scene",
            "nodes" : [
                1,
                0,
                2
            ]
        }
    ]
}
